<svg xmlns="http://www.w3.org/2000/svg" viewBox="0 0 95 87.78"><defs><style>.cls-1{fill:#fff;}.cls-2{fill:#121424;}.cls-3{fill:#48c7eb;}.cls-4{fill:#80d2e8;}</style></defs><g id="Layer_2" data-name="Layer 2"><g id="Layer_1-2" data-name="Layer 1"><path class="cls-1" d="M39,29.67a2,2,0,0,0-1.79.5h0L34,33.58l-.36.37.35-.38,3.32-3.63A1.35,1.35,0,0,1,39,29.67Z"/><path class="cls-1" d="M31,59.87a1.35,1.35,0,0,1-2-1c-.14-.87-.24-1.62.09-2,3.16-3.57,6.53-7,9.94-10.28a2.24,2.24,0,0,1,2.23,0c.53.62,1,2.17.64,2.54-3.48,3.62-7.13,7.08-10.75,10.57A1,1,0,0,1,31,59.87Z"/><path class="cls-1" d="M47.53,55a1.37,1.37,0,0,1,1.69-.24c2,1.21,2.48,2.31.77,4-2.93,2.9-5.71,6-8.78,8.7a3,3,0,0,1-2,.47,1.37,1.37,0,0,1-1.38-1.62,3.33,3.33,0,0,1,.62-1.59C41.4,61.42,44.47,58.25,47.53,55Z"/><path class="cls-4" d="M23.67,44.87l-1.45,1.58a1.16,1.16,0,0,1-.57.36l1.91-2.05Z"/><path class="cls-4" d="M40.1,36.21A4.4,4.4,0,0,1,39,38.16l0,.05-1.81-1.69.58-.63a1.38,1.38,0,0,1,1.94-.07Z"/><rect class="cls-3" x="40.68" y="51.3" width="6.52" height="21.5" rx="3.26" transform="translate(54.2 -13.28) rotate(43.06)"/><rect class="cls-3" x="32.44" y="41.96" width="6.52" height="21.5" rx="3.26" transform="translate(45.6 -10.18) rotate(43.06)"/><path class="cls-4" d="M48.41,20.16a1.16,1.16,0,0,1-.58.25,2.68,2.68,0,0,1,0-.8Z"/><path class="cls-4" d="M62.36,6.62a18.84,18.84,0,0,0-2.61,2l-.56-.46.1-.1.61-.56A3.23,3.23,0,0,1,62.36,6.62Z"/><path class="cls-4" d="M52,23.53l-1.16,1.06-.41-.45a1.34,1.34,0,0,1,.39-1.09l.32-.32Z"/><path class="cls-4" d="M65.37,9.85A3.24,3.24,0,0,1,64.6,12c-.1.1-.2.2-.29.31l-.06.06-1.34-1.11.87-.76a10.69,10.69,0,0,1,1.55-1.1A2.74,2.74,0,0,1,65.37,9.85Z"/><path class="cls-4" d="M86.82,33.4l-.12.18-.38-.38.15-.15Z"/><path class="cls-4" d="M91.06,37.64,91,37.7l-1.43-1.37a.28.28,0,0,0,.08-.11Z"/><path class="cls-4" d="M26.79,8l-.2.24a.3.3,0,0,1-.15.12.29.29,0,0,1-.2,0h0c-2.43-.82-5.06,0-7.21,1.24a18.08,18.08,0,0,0-2.85,2.23c-.76.67-1.52,1.35-2.27,2-3.24,3-7.37,6.69-7.7,11.38a7.22,7.22,0,0,0,1.1,4.34,1.74,1.74,0,0,0,.11.18L7,30.05l-.28.2a4.59,4.59,0,0,1-.17-.48,11.48,11.48,0,0,1,2.15-11c1.84-2.17,3.95-4.11,6-6.12C18.43,9,22.1,7.36,25.78,7.86A8.54,8.54,0,0,1,26.79,8Z"/><path class="cls-4" d="M3.44,32.62c-.46.31-.93.62-1.37.94l0,0H2a1.9,1.9,0,0,1,.62-2.59A12.51,12.51,0,0,0,3.44,32.62Z"/><path class="cls-4" d="M62.36,6.62a18.84,18.84,0,0,0-2.61,2l-.56-.46.1-.1.61-.56A3.23,3.23,0,0,1,62.36,6.62Z"/><path class="cls-4" d="M65.37,9.85A3.24,3.24,0,0,1,64.6,12c-.1.1-.2.2-.29.31l-.06.06-1.34-1.11.87-.76a10.69,10.69,0,0,1,1.55-1.1A2.74,2.74,0,0,1,65.37,9.85Z"/><path class="cls-4" d="M86.82,33.4l-.12.18-.38-.38.15-.15Z"/><path class="cls-3" d="M91.06,37.64l-1.42-1.42a.28.28,0,0,1-.08.11L91,37.7l.07-.06,0,0L50.77,78a3.26,3.26,0,0,1-4.61-4.61L86.32,33.2l.38.38.12-.18-.35-.35-.15.15h0a11.72,11.72,0,0,0,1-11A19.77,19.77,0,0,0,82,15.51c-1.11-1-2.25-1.94-3.34-2.95a14.91,14.91,0,0,0-3.46-2.89,7.38,7.38,0,0,0-2-.61,10,10,0,0,0-3.36,0A9.82,9.82,0,0,0,64.6,12a3.24,3.24,0,0,0,.77-2.1,2.74,2.74,0,0,0,0-.5,10.69,10.69,0,0,0-1.55,1.1l-.87.76,1.34,1.11L52,23.53l-.86-.8-.32.32a1.34,1.34,0,0,0-.39,1.09l.41.45L52,23.53l7.32,6.84a3.39,3.39,0,0,1,.41,4.6,3.27,3.27,0,0,1-4.73.29L53.4,33.74l-4.17-3.9q-2.85-2.65-5.69-5.32-3.1-2.88-6.19-5.78L31.7,13.47,27.62,9.65c-.46-.42-1-.83-1.42-1.29h0a.29.29,0,0,0,.2,0,.3.3,0,0,0,.15-.12l.2-.24a8.54,8.54,0,0,0-1-.18c-3.68-.5-7.35,1.1-11.1,4.83-2,2-4.13,4-6,6.12a11.48,11.48,0,0,0-2.15,11,4.59,4.59,0,0,0,.17.48l.28-.2.37-.28a1.74,1.74,0,0,1-.11-.18h0l.48.45.65.6.89.83,1.08,1,1.25,1.16L13,34.92l1.46,1.36L16,37.7l1.54,1.44,1.54,1.44c.5.46,1,.92,1.49,1.39L22,43.28l1.3,1.21.29.27-1.91,2.05a1.16,1.16,0,0,0,.57-.36l1.45-1.58c3.34-3.65,6.47-7.09,9.57-10.47l.42-.45.36-.37,3.17-3.4h0a2,2,0,0,1,2.71,0L52.58,42a2.18,2.18,0,0,1,.1,3.09l-1.46,1.57a2.19,2.19,0,0,1-3.1.1L39,38.21l0-.05a4.4,4.4,0,0,0,1.08-1.95l-.41-.39a1.38,1.38,0,0,0-1.94.07l-.58.63L39,38.21,26,52.1a1.86,1.86,0,0,1-1.48.6,3.2,3.2,0,0,1-2.88-.8L2.29,33.83l0,0A1.49,1.49,0,0,1,2,33.53l0,0c.44-.32.91-.63,1.37-.94a12.51,12.51,0,0,1-.8-1.7A1.9,1.9,0,0,0,2,33.51a1.2,1.2,0,0,1-.18-.2A6.47,6.47,0,0,1,.57,31.05C-.81,26.47.41,22.52,3.05,18.49a29.73,29.73,0,0,1,3.73-4.28,81,81,0,0,1,8.05-7.57c2.72-2.15,5.57-4.31,9.11-4.75a9.08,9.08,0,0,1,6.55,1.55l.09.06L47.83,19.61a2.68,2.68,0,0,0,0,.8,1.16,1.16,0,0,0,.58-.25l-.58-.55a3.22,3.22,0,0,1,1-2L59.19,8.11l.56.46a18.84,18.84,0,0,1,2.61-1.95,3.23,3.23,0,0,0-2.46.83L59.29,8A15,15,0,0,1,64.62,4.5C72.2,1.59,78.8,5.79,84.47,10.55a39.34,39.34,0,0,1,7.36,7.73,18.21,18.21,0,0,1,3.4,10A12,12,0,0,1,91.06,37.64Z"/><path class="cls-4" d="M91.06,37.64,91,37.7l-1.43-1.37a.28.28,0,0,0,.08-.11Z"/></g></g></svg>