<svg xmlns="http://www.w3.org/2000/svg" viewBox="0 0 633.15 87.78"><defs><style>.cls-1{fill:#fff;}.cls-2{fill:#121424;}.cls-3{fill:#48c7eb;}.cls-4{fill:#80d2e8;}</style></defs><g id="Layer_2" data-name="Layer 2"><g id="Layer_1-2" data-name="Layer 1"><path class="cls-1" d="M39,29.67a2,2,0,0,0-1.79.5h0L34,33.58l-.36.37.35-.38,3.32-3.63A1.35,1.35,0,0,1,39,29.67Z"/><path class="cls-1" d="M31,59.87a1.35,1.35,0,0,1-2-1c-.14-.87-.24-1.62.09-2,3.16-3.57,6.53-7,9.94-10.28a2.24,2.24,0,0,1,2.23,0c.53.62,1,2.17.64,2.54-3.48,3.62-7.13,7.08-10.75,10.57A1,1,0,0,1,31,59.87Z"/><path class="cls-1" d="M47.53,55a1.37,1.37,0,0,1,1.69-.24c2,1.21,2.48,2.31.77,4-2.93,2.9-5.71,6-8.78,8.7a3,3,0,0,1-2,.47,1.37,1.37,0,0,1-1.38-1.62,3.33,3.33,0,0,1,.62-1.59C41.4,61.42,44.47,58.25,47.53,55Z"/><path class="cls-2" d="M103,47.72h8.92a12.87,12.87,0,0,0,2.57,6.84,15.24,15.24,0,0,0,6.21,4.8,22.29,22.29,0,0,0,9.17,1.75,19.63,19.63,0,0,0,7.56-1.26,10,10,0,0,0,4.51-3.44,9,9,0,0,0,1.51-5.19,6.84,6.84,0,0,0-1.65-4.81,12.53,12.53,0,0,0-4.95-3A75.17,75.17,0,0,0,128.68,41a84.58,84.58,0,0,1-8.39-2.57,37.47,37.47,0,0,1-7.56-3.73,18.73,18.73,0,0,1-5.53-5.39,13.49,13.49,0,0,1-2.09-7.61,15.28,15.28,0,0,1,2.62-8.68,18.33,18.33,0,0,1,7.71-6.31,29.19,29.19,0,0,1,12.37-2.38q11.25,0,17,5.63t5.58,15h-8.73c-.19-4.4-1.59-7.55-4.17-9.46s-5.95-2.86-10.09-2.86a17.93,17.93,0,0,0-9.12,2.18,7.33,7.33,0,0,0-3.78,6.84,6.93,6.93,0,0,0,.87,3.54A8.36,8.36,0,0,0,118.3,28a27.52,27.52,0,0,0,5.48,2.43q3.45,1.16,8.59,2.52a58.75,58.75,0,0,1,7.52,2.23,29.28,29.28,0,0,1,6.54,3.4A14.63,14.63,0,0,1,151,43.84a16.67,16.67,0,0,1,1.7,7.86,17,17,0,0,1-2.43,9,16.65,16.65,0,0,1-7.51,6.41q-5.1,2.37-13.15,2.37a33.53,33.53,0,0,1-11.1-1.65,25.12,25.12,0,0,1-7.86-4.27,22.19,22.19,0,0,1-5-5.62,20,20,0,0,1-2.42-5.72A11.71,11.71,0,0,1,103,47.72Z"/><path class="cls-2" d="M162.73,20h8.92l.39,11V87.78h-9.31Zm27.64,49.47a16.43,16.43,0,0,1-15.32-8.73,30.71,30.71,0,0,1-3.11-8.24,38.51,38.51,0,0,1-1-8.25,49.11,49.11,0,0,1,.93-9.8,24.73,24.73,0,0,1,3-8A14.66,14.66,0,0,1,180.87,21a20.75,20.75,0,0,1,9.5-1.94,20.54,20.54,0,0,1,11.35,3.25,23.72,23.72,0,0,1,8.1,9,27.15,27.15,0,0,1,3.06,13,27,27,0,0,1-3.11,13.15,23.64,23.64,0,0,1-8.19,8.87A20.69,20.69,0,0,1,190.37,69.45Zm-2.62-8.15A15.5,15.5,0,0,0,196,59.12a15,15,0,0,0,5.58-6,19.11,19.11,0,0,0,2-8.88,18.37,18.37,0,0,0-4.13-12.32q-4.12-4.85-11.69-4.85a15.34,15.34,0,0,0-8.1,2.14,14.92,14.92,0,0,0-5.57,6,19.14,19.14,0,0,0-2,9,20.14,20.14,0,0,0,1.8,8.68A14.38,14.38,0,0,0,179.12,59,15.48,15.48,0,0,0,187.75,61.3Z"/><path class="cls-2" d="M246,69.45a28.16,28.16,0,0,1-13-3,23.17,23.17,0,0,1-9.41-8.63,25,25,0,0,1-3.5-13.48,25.49,25.49,0,0,1,3.5-13.63A23.09,23.09,0,0,1,233,22a28.29,28.29,0,0,1,13-3,27.74,27.74,0,0,1,12.9,3,23.36,23.36,0,0,1,9.32,8.68,25.58,25.58,0,0,1,3.49,13.63,25.11,25.11,0,0,1-3.49,13.48,23.45,23.45,0,0,1-9.32,8.63A27.62,27.62,0,0,1,246,69.45Zm0-8.05a16.92,16.92,0,0,0,8.1-2,15.22,15.22,0,0,0,6-5.82,17.78,17.78,0,0,0,2.28-9.26,18.27,18.27,0,0,0-2.28-9.41,15.55,15.55,0,0,0-6-5.92,16.62,16.62,0,0,0-8.1-2,17.27,17.27,0,0,0-8.14,2,15.53,15.53,0,0,0-6.12,5.87,18.21,18.21,0,0,0-2.32,9.51,17.78,17.78,0,0,0,2.28,9.26,15.06,15.06,0,0,0,6.06,5.82A17.39,17.39,0,0,0,246,61.4Z"/><path class="cls-2" d="M281.36,20h9.31v48.4h-9.31Zm27.74-1a21.92,21.92,0,0,1,7.37,1.17,15,15,0,0,1,5.63,3.44,15.72,15.72,0,0,1,3.63,5.63A20.62,20.62,0,0,1,327,36.86V68.38h-9.21V38.9q0-5.73-2.77-8.59c-1.84-1.9-4.64-2.86-8.39-2.86a15.79,15.79,0,0,0-7.95,2,17.42,17.42,0,0,0-5.87,5.38,16.5,16.5,0,0,0-2.76,7.52l-.1-5.34a22.57,22.57,0,0,1,2.09-7.17,21,21,0,0,1,4.07-5.78,17,17,0,0,1,5.77-3.78A19.34,19.34,0,0,1,309.1,19Z"/><path class="cls-2" d="M337.13,52.67h8.54A9.39,9.39,0,0,0,349.16,59c2,1.65,4.82,2.48,8.44,2.48a14.25,14.25,0,0,0,5.43-.83,5.5,5.5,0,0,0,2.76-2.28,6.36,6.36,0,0,0,.83-3.2,4.8,4.8,0,0,0-1.16-3.44,9,9,0,0,0-3.3-2,51,51,0,0,0-5.05-1.6q-3.19-.87-6.4-2a31.53,31.53,0,0,1-5.87-2.81,13.37,13.37,0,0,1-4.27-4.12,11,11,0,0,1-1.6-6.06,12.46,12.46,0,0,1,1.31-5.63,13,13,0,0,1,3.79-4.51A18.31,18.31,0,0,1,349.84,20a24.52,24.52,0,0,1,7.27-1,20,20,0,0,1,9.32,2,13.81,13.81,0,0,1,5.77,5.58,17.5,17.5,0,0,1,2.08,8.24h-8.15a9.86,9.86,0,0,0-2.81-6c-1.42-1.26-3.56-1.89-6.4-1.89a10.69,10.69,0,0,0-6.4,1.64,5.27,5.27,0,0,0-2.23,4.47,4.26,4.26,0,0,0,1.55,3.44A14,14,0,0,0,354,38.8c1.74.65,3.72,1.33,5.92,2s4.05,1.44,6,2.18A27.2,27.2,0,0,1,371,45.64a10.78,10.78,0,0,1,3.59,3.88,11.94,11.94,0,0,1,1.31,5.87,12.94,12.94,0,0,1-2.13,7.42,14,14,0,0,1-6.16,4.9,24.56,24.56,0,0,1-9.75,1.74A27.37,27.37,0,0,1,349,68.19a19.63,19.63,0,0,1-6.11-3.3,15.92,15.92,0,0,1-3.78-4.31,15,15,0,0,1-1.75-4.42A10.56,10.56,0,0,1,337.13,52.67Z"/><path class="cls-2" d="M396.88,0V10H385.34V0ZM386.5,20h9.22v48.4H386.5Z"/><path class="cls-3" d="M428.5,68.38,404.64,5.43h10.19l20.37,55h-2.91l19.49-55h10.38l19.5,55h-2.81l20.37-55h9.89l-23.57,63H475l-19.31-56h2.72l-19.4,56Z"/><path class="cls-3" d="M528.32,0V10H516.77V0ZM517.94,20h9.21v48.4h-9.21Z"/><path class="cls-3" d="M538.11,52.67h8.54A9.39,9.39,0,0,0,550.14,59c2,1.65,4.82,2.48,8.44,2.48a14.25,14.25,0,0,0,5.43-.83,5.57,5.57,0,0,0,2.77-2.28,6.46,6.46,0,0,0,.82-3.2,4.8,4.8,0,0,0-1.16-3.44,9,9,0,0,0-3.3-2,51,51,0,0,0-5-1.6q-3.2-.87-6.4-2a31.53,31.53,0,0,1-5.87-2.81,13.23,13.23,0,0,1-4.26-4.12,10.9,10.9,0,0,1-1.6-6.06,12.45,12.45,0,0,1,1.3-5.63,13,13,0,0,1,3.79-4.51A18.31,18.31,0,0,1,550.82,20a24.52,24.52,0,0,1,7.27-1,20,20,0,0,1,9.32,2,13.81,13.81,0,0,1,5.77,5.58,17.5,17.5,0,0,1,2.08,8.24h-8.14a9.92,9.92,0,0,0-2.82-6c-1.42-1.26-3.56-1.89-6.4-1.89a10.69,10.69,0,0,0-6.4,1.64,5.27,5.27,0,0,0-2.23,4.47,4.26,4.26,0,0,0,1.55,3.44A14,14,0,0,0,555,38.8q2.63,1,5.92,2c2.07.71,4.05,1.44,6,2.18A27.2,27.2,0,0,1,572,45.64a10.78,10.78,0,0,1,3.59,3.88,11.94,11.94,0,0,1,1.31,5.87,12.94,12.94,0,0,1-2.13,7.42,14,14,0,0,1-6.16,4.9,24.56,24.56,0,0,1-9.75,1.74A27.37,27.37,0,0,1,550,68.19a19.63,19.63,0,0,1-6.11-3.3,15.92,15.92,0,0,1-3.78-4.31,15.22,15.22,0,0,1-1.75-4.42A10.56,10.56,0,0,1,538.11,52.67Z"/><path class="cls-3" d="M624.05,52.67h8.83a18.82,18.82,0,0,1-3.69,8.54,20.41,20.41,0,0,1-7.66,6,26,26,0,0,1-11.15,2.23,28,28,0,0,1-13.49-3.2,24,24,0,0,1-9.31-8.83,24.86,24.86,0,0,1-3.39-13.09,25.83,25.83,0,0,1,3.29-13.24,23.45,23.45,0,0,1,9.12-8.88A27.16,27.16,0,0,1,609.89,19a25.83,25.83,0,0,1,13.19,3.11A18.71,18.71,0,0,1,631,31.28q2.57,6.06,2.08,15.09H593.4a17.69,17.69,0,0,0,2.67,7.76,15.33,15.33,0,0,0,5.82,5.33,17.58,17.58,0,0,0,8.39,1.94A15.63,15.63,0,0,0,619.2,59,11.94,11.94,0,0,0,624.05,52.67ZM610,27a16.21,16.21,0,0,0-10.48,3.34A15.9,15.9,0,0,0,594,39.19h29.78q-.39-5.92-4.27-9.07A14.57,14.57,0,0,0,610,27Z"/><path class="cls-4" d="M3.44,32.62c-.46.31-.93.62-1.37.94l0,0H2a1.9,1.9,0,0,1,.62-2.59A12.51,12.51,0,0,0,3.44,32.62Z"/><path class="cls-4" d="M7.38,29.77,7,30.05l-.28.2a4.59,4.59,0,0,1-.17-.48l.24-.06.47-.12A1.74,1.74,0,0,0,7.38,29.77Z"/><path class="cls-4" d="M23.67,44.87l-1.45,1.58a1.16,1.16,0,0,1-.57.36l1.91-2.05Z"/><path class="cls-4" d="M26.79,8l-.2.24a.3.3,0,0,1-.15.12.29.29,0,0,1-.2,0h0a4,4,0,0,1-.42-.5A8.54,8.54,0,0,1,26.79,8Z"/><path class="cls-4" d="M48.41,20.16a1.16,1.16,0,0,1-.58.25,2.68,2.68,0,0,1,0-.8Z"/><path class="cls-4" d="M52,23.53l-1.16,1.06-.41-.45a1.34,1.34,0,0,1,.39-1.09l.32-.32Z"/><path class="cls-4" d="M37.19,30.18,34,33.58h0l3.1-3.32S37.16,30.19,37.19,30.18Z"/><path class="cls-4" d="M40.1,36.21A4.4,4.4,0,0,1,39,38.16l0,.05-1.81-1.69.58-.63a1.38,1.38,0,0,1,1.94-.07Z"/><path class="cls-4" d="M33.24,34.4c-3.1,3.38-6.23,6.82-9.57,10.47l-1.45,1.58a1.16,1.16,0,0,1-.57.36l1.91-2.05Z"/><path class="cls-4" d="M40.1,36.21A4.4,4.4,0,0,1,39,38.16l0,.05-1.81-1.69.58-.63a1.38,1.38,0,0,1,1.94-.07Z"/><rect class="cls-3" x="40.68" y="51.3" width="6.52" height="21.5" rx="3.26" transform="translate(54.2 -13.28) rotate(43.06)"/><rect class="cls-3" x="32.44" y="41.96" width="6.52" height="21.5" rx="3.26" transform="translate(45.6 -10.18) rotate(43.06)"/><path class="cls-4" d="M48.41,20.16a1.16,1.16,0,0,1-.58.25,2.68,2.68,0,0,1,0-.8Z"/><path class="cls-4" d="M62.36,6.62a18.84,18.84,0,0,0-2.61,2l-.56-.46.1-.1.61-.56A3.23,3.23,0,0,1,62.36,6.62Z"/><path class="cls-4" d="M52,23.53l-1.16,1.06-.41-.45a1.34,1.34,0,0,1,.39-1.09l.32-.32Z"/><path class="cls-4" d="M65.37,9.85A3.24,3.24,0,0,1,64.6,12c-.1.1-.2.2-.29.31l-.06.06-1.34-1.11.87-.76a10.69,10.69,0,0,1,1.55-1.1A2.74,2.74,0,0,1,65.37,9.85Z"/><path class="cls-4" d="M86.82,33.4l-.12.18-.38-.38.15-.15Z"/><path class="cls-4" d="M91.06,37.64,91,37.7l-1.43-1.37a.28.28,0,0,0,.08-.11Z"/><path class="cls-4" d="M26.79,8l-.2.24a.3.3,0,0,1-.15.12.29.29,0,0,1-.2,0h0c-2.43-.82-5.06,0-7.21,1.24a18.08,18.08,0,0,0-2.85,2.23c-.76.67-1.52,1.35-2.27,2-3.24,3-7.37,6.69-7.7,11.38a7.22,7.22,0,0,0,1.1,4.34,1.74,1.74,0,0,0,.11.18L7,30.05l-.28.2a4.59,4.59,0,0,1-.17-.48,11.48,11.48,0,0,1,2.15-11c1.84-2.17,3.95-4.11,6-6.12C18.43,9,22.1,7.36,25.78,7.86A8.54,8.54,0,0,1,26.79,8Z"/><path class="cls-4" d="M3.44,32.62c-.46.31-.93.62-1.37.94l0,0H2a1.9,1.9,0,0,1,.62-2.59A12.51,12.51,0,0,0,3.44,32.62Z"/><path class="cls-4" d="M62.36,6.62a18.84,18.84,0,0,0-2.61,2l-.56-.46.1-.1.61-.56A3.23,3.23,0,0,1,62.36,6.62Z"/><path class="cls-4" d="M65.37,9.85A3.24,3.24,0,0,1,64.6,12c-.1.1-.2.2-.29.31l-.06.06-1.34-1.11.87-.76a10.69,10.69,0,0,1,1.55-1.1A2.74,2.74,0,0,1,65.37,9.85Z"/><path class="cls-4" d="M86.82,33.4l-.12.18-.38-.38.15-.15Z"/><path class="cls-3" d="M91.06,37.64l-1.42-1.42a.28.28,0,0,1-.08.11L91,37.7l.07-.06,0,0L50.77,78a3.26,3.26,0,0,1-4.61-4.61L86.32,33.2l.38.38.12-.18-.35-.35-.15.15h0a11.72,11.72,0,0,0,1-11A19.77,19.77,0,0,0,82,15.51c-1.11-1-2.25-1.94-3.34-2.95a14.91,14.91,0,0,0-3.46-2.89,7.38,7.38,0,0,0-2-.61,10,10,0,0,0-3.36,0A9.82,9.82,0,0,0,64.6,12a3.24,3.24,0,0,0,.77-2.1,2.74,2.74,0,0,0,0-.5,10.69,10.69,0,0,0-1.55,1.1l-.87.76,1.34,1.11L52,23.53l-.86-.8-.32.32a1.34,1.34,0,0,0-.39,1.09l.41.45L52,23.53l7.32,6.84a3.39,3.39,0,0,1,.41,4.6,3.27,3.27,0,0,1-4.73.29L53.4,33.74l-4.17-3.9q-2.85-2.65-5.69-5.32-3.1-2.88-6.19-5.78L31.7,13.47,27.62,9.65c-.46-.42-1-.83-1.42-1.29h0a.29.29,0,0,0,.2,0,.3.3,0,0,0,.15-.12l.2-.24a8.54,8.54,0,0,0-1-.18c-3.68-.5-7.35,1.1-11.1,4.83-2,2-4.13,4-6,6.12a11.48,11.48,0,0,0-2.15,11,4.59,4.59,0,0,0,.17.48l.28-.2.37-.28a1.74,1.74,0,0,1-.11-.18h0l.48.45.65.6.89.83,1.08,1,1.25,1.16L13,34.92l1.46,1.36L16,37.7l1.54,1.44,1.54,1.44c.5.46,1,.92,1.49,1.39L22,43.28l1.3,1.21.29.27-1.91,2.05a1.16,1.16,0,0,0,.57-.36l1.45-1.58c3.34-3.65,6.47-7.09,9.57-10.47l.42-.45.36-.37,3.17-3.4h0a2,2,0,0,1,2.71,0L52.58,42a2.18,2.18,0,0,1,.1,3.09l-1.46,1.57a2.19,2.19,0,0,1-3.1.1L39,38.21l0-.05a4.4,4.4,0,0,0,1.08-1.95l-.41-.39a1.38,1.38,0,0,0-1.94.07l-.58.63L39,38.21,26,52.1a1.86,1.86,0,0,1-1.48.6,3.2,3.2,0,0,1-2.88-.8L2.29,33.83l0,0A1.49,1.49,0,0,1,2,33.53l0,0c.44-.32.91-.63,1.37-.94a12.51,12.51,0,0,1-.8-1.7A1.9,1.9,0,0,0,2,33.51a1.2,1.2,0,0,1-.18-.2A6.47,6.47,0,0,1,.57,31.05C-.81,26.47.41,22.52,3.05,18.49a29.73,29.73,0,0,1,3.73-4.28,81,81,0,0,1,8.05-7.57c2.72-2.15,5.57-4.31,9.11-4.75a9.08,9.08,0,0,1,6.55,1.55l.09.06L47.83,19.61a2.68,2.68,0,0,0,0,.8,1.16,1.16,0,0,0,.58-.25l-.58-.55a3.22,3.22,0,0,1,1-2L59.19,8.11l.56.46a18.84,18.84,0,0,1,2.61-1.95,3.23,3.23,0,0,0-2.46.83L59.29,8A15,15,0,0,1,64.62,4.5C72.2,1.59,78.8,5.79,84.47,10.55a39.34,39.34,0,0,1,7.36,7.73,18.21,18.21,0,0,1,3.4,10A12,12,0,0,1,91.06,37.64Z"/><path class="cls-4" d="M91.06,37.64,91,37.7l-1.43-1.37a.28.28,0,0,0,.08-.11Z"/></g></g></svg>